<svg width="120" height="120" viewBox="0 0 120 120" version="1.1" xmlns="http://www.w3.org/2000/svg" xmlns:xlink="http://www.w3.org/1999/xlink">
<title>Group 3</title>
<desc>Created using Figma</desc>
<g id="Canvas" transform="translate(-60 47)">
<g id="Group 3">
<g id="Oval">
<use xlink:href="#path0_fill" transform="translate(60 -47)" fill="url(#paint0_linear)"/>
</g>
<g id="Shape">
<use xlink:href="#path1_fill" transform="translate(107 -7)" fill="#FFFFFF"/>
</g>
</g>
</g>
<defs>
<linearGradient id="paint0_linear" x1="0" y1="0" x2="1" y2="0" gradientUnits="userSpaceOnUse" gradientTransform="matrix(113.296 -120 120 113.296 6.70422 120)">
<stop offset="0" stop-color="#FFFFFF" stop-opacity="0.1"/>
<stop offset="1" stop-color="#FFFFFF" stop-opacity="0.6"/>
</linearGradient>
<path id="path0_fill" fill-rule="evenodd" d="M 60 120C 93.1371 120 120 93.1371 120 60C 120 26.8629 93.1371 0 60 0C 26.8629 0 0 26.8629 0 60C 0 93.1371 26.8629 120 60 120Z"/>
<path id="path1_fill" fill-rule="evenodd" d="M 4.87509 8.10811C 4.87509 3.63491 8.51754 0 13 0C 17.4825 0 21.1249 3.63491 21.1249 8.10811L 21.1249 20C 21.1249 24.4732 17.4825 28.1081 13 28.1081C 8.51754 28.1081 4.87509 24.4732 4.87509 20L 4.87509 8.10811ZM 0.317332 14.9111C 0.524676 14.7042 0.807201 14.59 1.10038 14.5946C 1.38771 14.5991 1.66147 14.7173 1.86146 14.9232C 2.06145 15.1291 2.17128 15.4058 2.16678 15.6926L 2.16678 20.0169C 2.16678 26.0248 6.97966 30.8277 13 30.8277C 19.0204 30.8277 23.8333 26.0248 23.8333 20.0169L 23.8333 15.6926C 23.8277 15.3027 24.033 14.9401 24.3704 14.7435C 24.7079 14.547 25.1252 14.547 25.4627 14.7435C 25.8002 14.9401 26.0054 15.3027 25.9999 15.6926L 25.9999 20.0169C 25.9999 26.8233 20.7621 32.3934 14.0833 32.9392L 14.0833 37.8378L 18.4166 37.8378C 19.0149 37.8378 19.5 38.3218 19.5 38.9189C 19.5 39.516 19.0149 40 18.4166 40L 7.5834 40C 6.9851 40 6.50008 39.516 6.50008 38.9189C 6.50008 38.3218 6.9851 37.8378 7.5834 37.8378L 11.9167 37.8378L 11.9167 32.9392C 5.23797 32.3934 0.000132658 26.8233 0.000132658 20.0169L 0.000132658 15.6926C -0.00445261 15.4 0.109996 15.118 0.317332 14.9111Z"/>
</defs>
</svg>
